<svg width="44" height="44" viewBox="0 0 44 44" fill="none" xmlns="http://www.w3.org/2000/svg">
<path d="M17.4167 30.2503L30.25 22.0003L17.4167 13.7503V30.2503ZM22 40.3337C19.4639 40.3337 17.0805 39.8521 14.85 38.889C12.6194 37.9259 10.6792 36.6199 9.02916 34.9712C7.37916 33.3212 6.07321 31.3809 5.11132 29.1503C4.14943 26.9198 3.66788 24.5364 3.66666 22.0003C3.66666 19.4642 4.14821 17.0809 5.11132 14.8503C6.07443 12.6198 7.38038 10.6795 9.02916 9.02949C10.6792 7.37949 12.6194 6.07355 14.85 5.11166C17.0805 4.14977 19.4639 3.66821 22 3.66699C24.5361 3.66699 26.9194 4.14855 29.15 5.11166C31.3805 6.07477 33.3208 7.38071 34.9708 9.02949C36.6208 10.6795 37.9274 12.6198 38.8905 14.8503C39.8536 17.0809 40.3345 19.4642 40.3333 22.0003C40.3333 24.5364 39.8518 26.9198 38.8887 29.1503C37.9255 31.3809 36.6196 33.3212 34.9708 34.9712C33.3208 36.6212 31.3805 37.9277 29.15 38.8908C26.9194 39.8539 24.5361 40.3349 22 40.3337Z" fill="white"/>
</svg>
